<svg width="312" height="48" viewBox="0 0 312 48" fill="none" xmlns="http://www.w3.org/2000/svg">
<path d="M45.334 34.9082C46.2953 34.9082 47.1791 34.9918 48 35.1406V42.6855C47.4239 42.415 46.6227 42.1816 45.334 42.1816C44.0723 42.1816 43.2665 42.43 42.6504 42.7324C41.9586 43.072 41.3696 43.5387 40.4453 44.2949C39.5922 44.9929 38.4031 45.9812 36.873 46.7324C35.2669 47.5209 33.4052 48 31.1113 48C28.7692 48 26.8839 47.5292 25.2617 46.7266C23.7118 45.9596 22.5446 44.9469 21.7246 44.248C20.8379 43.4923 20.2949 43.0503 19.6406 42.7266C19.0585 42.4388 18.2427 42.1816 16.8887 42.1816C15.627 42.1816 14.8212 42.43 14.2051 42.7324C13.5133 43.072 12.9243 43.5387 12 44.2949C11.1469 44.9929 9.95772 45.9812 8.42773 46.7324C6.82164 47.5208 4.95982 48 2.66602 48C1.70452 48 0.821008 47.9145 0 47.7656V40.2207C0.576222 40.4915 1.37645 40.7266 2.66602 40.7266C3.9277 40.7266 4.73346 40.4782 5.34961 40.1758C6.0414 39.8361 6.6303 39.3696 7.55469 38.6133C8.40791 37.9152 9.59676 36.927 11.127 36.1758C12.7331 35.3874 14.5948 34.9082 16.8887 34.9082C19.2306 34.9082 21.1162 35.3791 22.7383 36.1816C24.2884 36.9487 25.4554 37.9633 26.2754 38.6621C27.162 39.4177 27.7052 39.8579 28.3594 40.1816C28.9415 40.4694 29.757 40.7266 31.1113 40.7266C32.373 40.7266 33.1788 40.4782 33.7949 40.1758C34.4867 39.8361 35.0756 39.3696 36 38.6133C36.8532 37.9152 38.0421 36.927 39.5723 36.1758C41.1784 35.3874 43.0402 34.9082 45.334 34.9082Z" fill="#B4E6E9"/>
<path d="M45.334 17.4551C46.2952 17.4551 47.1792 17.5367 48 17.6855V25.2324C47.4238 24.9618 46.6231 24.7266 45.334 24.7266C44.0723 24.7266 43.2665 24.9769 42.6504 25.2793C41.9587 25.6189 41.3696 26.0856 40.4453 26.8418C39.5921 27.5399 38.4032 28.5281 36.873 29.2793C35.2669 30.0677 33.4051 30.5449 31.1113 30.5449C28.7695 30.5449 26.8837 30.0759 25.2617 29.2734C23.7116 28.5064 22.5446 27.4918 21.7246 26.793C20.8379 26.0373 20.2949 25.5972 19.6406 25.2734C19.0585 24.9856 18.2431 24.7266 16.8887 24.7266C15.627 24.7266 14.8212 24.9769 14.2051 25.2793C13.5133 25.6189 12.9243 26.0855 12 26.8418C11.1468 27.5399 9.95788 28.5281 8.42773 29.2793C6.82164 30.0677 4.95982 30.5449 2.66602 30.5449C1.70462 30.5449 0.820938 30.4614 0 30.3125V22.7656C0.576237 23.0364 1.3763 23.2734 2.66602 23.2734C3.9277 23.2734 4.73346 23.0231 5.34961 22.7207C6.04131 22.3811 6.63038 21.9144 7.55469 21.1582C8.40793 20.4601 9.59682 19.4719 11.127 18.7207C12.7331 17.9323 14.5949 17.4551 16.8887 17.4551C19.2305 17.4551 21.1163 17.9241 22.7383 18.7266C24.2884 19.4936 25.4554 20.5082 26.2754 21.207C27.1621 21.9627 27.7051 22.4028 28.3594 22.7266C28.9415 23.0144 29.7569 23.2734 31.1113 23.2734C32.373 23.2734 33.1788 23.0231 33.7949 22.7207C34.4867 22.3811 35.0757 21.9145 36 21.1582C36.8532 20.4601 38.0421 19.4719 39.5723 18.7207C41.1784 17.9323 43.0402 17.4551 45.334 17.4551Z" fill="#B4E6E9"/>
<path d="M45.334 0C46.2953 0 47.1791 0.0835427 48 0.232422V7.77734C47.4238 7.50671 46.623 7.27344 45.334 7.27344C44.0723 7.27345 43.2665 7.52178 42.6504 7.82422C41.9586 8.16387 41.3697 8.63042 40.4453 9.38672C39.5921 10.0848 38.4032 11.073 36.873 11.8242C35.2669 12.6126 33.4052 13.0918 31.1113 13.0918C28.7694 13.0918 26.8838 12.6209 25.2617 11.8184C23.7116 11.0513 22.5446 10.0367 21.7246 9.33789C20.838 8.58232 20.2948 8.1421 19.6406 7.81836C19.0585 7.53056 18.243 7.27344 16.8887 7.27344C15.627 7.27344 14.8212 7.52178 14.2051 7.82422C13.5133 8.16386 12.9244 8.63042 12 9.38672C11.1468 10.0848 9.95789 11.073 8.42773 11.8242C6.82164 12.6126 4.95982 13.0918 2.66602 13.0918C1.70458 13.0918 0.820964 13.0063 0 12.8574V5.3125C0.576197 5.58321 1.37671 5.81836 2.66602 5.81836C3.92768 5.81835 4.73346 5.57001 5.34961 5.26758C6.04143 4.92797 6.6304 4.46128 7.55469 3.70508C8.40785 3.00706 9.59693 2.01878 11.127 1.26758C12.7331 0.479149 14.5948 0 16.8887 0C19.2308 2.41013e-06 21.1161 0.470838 22.7383 1.27344C24.2882 2.04041 25.4554 3.05313 26.2754 3.75195C27.1621 4.50766 27.7051 4.94967 28.3594 5.27344C28.9415 5.56117 29.7573 5.81836 31.1113 5.81836C32.373 5.81836 33.1788 5.57 33.7949 5.26758C34.4867 4.92798 35.0757 4.46126 36 3.70508C36.8531 3.00707 38.0423 2.01878 39.5723 1.26758C41.1784 0.479157 43.0402 9.37456e-06 45.334 0Z" fill="#B4E6E9"/>
<path d="M64 47.36V2.56H81.9775C85.2191 2.56 88.1407 3.09333 90.7424 4.16C93.3868 5.22667 95.6473 6.76266 97.524 8.768C99.4006 10.7733 100.851 13.1413 101.874 15.872C102.898 18.6027 103.41 21.632 103.41 24.96C103.41 28.288 102.898 31.3387 101.874 34.112C100.851 36.8427 99.4006 39.2107 97.524 41.216C95.69 43.1787 93.4508 44.6933 90.8064 45.76C88.162 46.8267 85.2191 47.36 81.9775 47.36H64ZM72.253 40.896L71.6772 39.68H81.6577C83.7476 39.68 85.6242 39.3387 87.2876 38.656C88.951 37.9733 90.3372 37.0133 91.4461 35.776C92.5977 34.496 93.4721 32.9387 94.0692 31.104C94.709 29.2693 95.0289 27.2213 95.0289 24.96C95.0289 22.6987 94.709 20.672 94.0692 18.88C93.4721 17.0453 92.5977 15.488 91.4461 14.208C90.2946 12.928 88.8871 11.9467 87.2237 11.264C85.6029 10.5813 83.7476 10.24 81.6577 10.24H71.4853L72.253 9.152V40.896Z" fill="#4F4F4F"/>
<path d="M123.106 48C119.736 48 116.729 47.2533 114.085 45.76C111.441 44.224 109.351 42.1333 107.815 39.488C106.322 36.8427 105.576 33.8347 105.576 30.464C105.576 27.0933 106.322 24.0853 107.815 21.44C109.351 18.7947 111.441 16.7253 114.085 15.232C116.729 13.696 119.736 12.928 123.106 12.928C126.433 12.928 129.418 13.696 132.063 15.232C134.707 16.7253 136.776 18.7947 138.268 21.44C139.804 24.0853 140.572 27.0933 140.572 30.464C140.572 33.8347 139.804 36.8427 138.268 39.488C136.776 42.1333 134.707 44.224 132.063 45.76C129.418 47.2533 126.433 48 123.106 48ZM123.106 41.024C124.94 41.024 126.582 40.576 128.032 39.68C129.482 38.7413 130.612 37.4827 131.423 35.904C132.276 34.2827 132.681 32.4693 132.638 30.464C132.681 28.416 132.276 26.6027 131.423 25.024C130.612 23.4027 129.482 22.144 128.032 21.248C126.582 20.352 124.94 19.904 123.106 19.904C121.272 19.904 119.608 20.3733 118.116 21.312C116.665 22.208 115.535 23.4667 114.725 25.088C113.914 26.6667 113.509 28.4587 113.509 30.464C113.509 32.4693 113.914 34.2827 114.725 35.904C115.535 37.4827 116.665 38.7413 118.116 39.68C119.608 40.576 121.272 41.024 123.106 41.024Z" fill="#4F4F4F"/>
<path d="M159.768 48C156.398 48 153.391 47.2533 150.747 45.76C148.102 44.224 146.013 42.1333 144.477 39.488C142.984 36.8427 142.238 33.8347 142.238 30.464C142.238 27.0933 142.984 24.0853 144.477 21.44C146.013 18.7947 148.102 16.7253 150.747 15.232C153.391 13.696 156.398 12.928 159.768 12.928C163.094 12.928 166.08 13.696 168.724 15.232C171.369 16.7253 173.437 18.7947 174.93 21.44C176.466 24.0853 177.233 27.0933 177.233 30.464C177.233 33.8347 176.466 36.8427 174.93 39.488C173.437 42.1333 171.369 44.224 168.724 45.76C166.08 47.2533 163.094 48 159.768 48ZM159.768 41.024C161.602 41.024 163.244 40.576 164.694 39.68C166.144 38.7413 167.274 37.4827 168.085 35.904C168.938 34.2827 169.343 32.4693 169.3 30.464C169.343 28.416 168.938 26.6027 168.085 25.024C167.274 23.4027 166.144 22.144 164.694 21.248C163.244 20.352 161.602 19.904 159.768 19.904C157.934 19.904 156.27 20.3733 154.777 21.312C153.327 22.208 152.197 23.4667 151.387 25.088C150.576 26.6667 150.171 28.4587 150.171 30.464C150.171 32.4693 150.576 34.2827 151.387 35.904C152.197 37.4827 153.327 38.7413 154.777 39.68C156.27 40.576 157.934 41.024 159.768 41.024Z" fill="#4F4F4F"/>
<path d="M182.96 47.36V10.56C182.96 8.55466 183.408 6.76266 184.304 5.184C185.2 3.56267 186.436 2.304 188.014 1.408C189.593 0.469332 191.405 0 193.453 0C194.903 0 196.246 0.255999 197.483 0.767998C198.763 1.28 199.808 1.96267 200.618 2.816L198.187 8.64C197.632 8.21333 197.035 7.872 196.395 7.616C195.798 7.31733 195.223 7.168 194.668 7.168C193.815 7.168 193.09 7.31733 192.493 7.616C191.938 7.872 191.512 8.27733 191.213 8.832C190.957 9.38666 190.829 10.0693 190.829 10.88V47.36H186.863C186.138 47.36 185.434 47.36 184.752 47.36C184.112 47.36 183.515 47.36 182.96 47.36ZM177.714 21.248V14.336H198.443V21.248H177.714Z" fill="#4F4F4F"/>
<path d="M215.91 48C212.541 48 209.534 47.2533 206.889 45.76C204.245 44.224 202.155 42.1333 200.619 39.488C199.127 36.8427 198.38 33.8347 198.38 30.464C198.38 27.0933 199.127 24.0853 200.619 21.44C202.155 18.7947 204.245 16.7253 206.889 15.232C209.534 13.696 212.541 12.928 215.91 12.928C219.237 12.928 222.222 13.696 224.867 15.232C227.511 16.7253 229.58 18.7947 231.073 21.44C232.608 24.0853 233.376 27.0933 233.376 30.464C233.376 33.8347 232.608 36.8427 231.073 39.488C229.58 42.1333 227.511 44.224 224.867 45.76C222.222 47.2533 219.237 48 215.91 48ZM215.91 41.024C217.744 41.024 219.386 40.576 220.836 39.68C222.286 38.7413 223.417 37.4827 224.227 35.904C225.08 34.2827 225.485 32.4693 225.443 30.464C225.485 28.416 225.08 26.6027 224.227 25.024C223.417 23.4027 222.286 22.144 220.836 21.248C219.386 20.352 217.744 19.904 215.91 19.904C214.076 19.904 212.413 20.3733 210.92 21.312C209.47 22.208 208.339 23.4667 207.529 25.088C206.719 26.6667 206.313 28.4587 206.313 30.464C206.313 32.4693 206.719 34.2827 207.529 35.904C208.339 37.4827 209.47 38.7413 210.92 39.68C212.413 40.576 214.076 41.024 215.91 41.024Z" fill="#4F4F4F"/>
<path d="M237.217 47.36V13.632H244.895L245.023 24.384L243.999 21.952C244.468 20.2453 245.278 18.7093 246.43 17.344C247.582 15.9787 248.904 14.912 250.397 14.144C251.932 13.3333 253.51 12.928 255.131 12.928C255.856 12.928 256.538 12.992 257.178 13.12C257.861 13.248 258.415 13.3973 258.842 13.568L256.794 22.144C256.282 21.888 255.685 21.696 255.003 21.568C254.363 21.3973 253.702 21.312 253.02 21.312C251.911 21.312 250.866 21.5253 249.885 21.952C248.946 22.336 248.115 22.8907 247.39 23.616C246.707 24.3413 246.153 25.1947 245.726 26.176C245.3 27.1147 245.087 28.16 245.087 29.312V47.36H237.217Z" fill="#4F4F4F"/>
<path d="M260.818 47.36V13.632H268.496L268.624 20.48L267.344 20.992C267.728 19.8827 268.304 18.8587 269.071 17.92C269.839 16.9387 270.756 16.0853 271.822 15.36C272.889 14.6347 274.019 14.08 275.213 13.696C276.407 13.2693 277.644 13.056 278.924 13.056C280.758 13.056 282.379 13.3547 283.786 13.952C285.194 14.5493 286.367 15.4667 287.305 16.704C288.286 17.9413 289.032 19.52 289.544 21.44L288.329 21.184L288.776 20.16C289.288 19.136 289.971 18.1973 290.824 17.344C291.677 16.4907 292.636 15.744 293.703 15.104C294.769 14.4213 295.878 13.9093 297.029 13.568C298.224 13.2267 299.375 13.056 300.484 13.056C303.043 13.056 305.176 13.568 306.882 14.592C308.588 15.616 309.867 17.1733 310.72 19.264C311.573 21.3547 312 23.936 312 27.008V47.36H304.131V27.52C304.131 24.96 303.619 23.0613 302.595 21.824C301.614 20.5867 300.079 19.968 297.989 19.968C296.88 19.968 295.856 20.16 294.918 20.544C293.98 20.8853 293.148 21.3973 292.423 22.08C291.741 22.72 291.207 23.488 290.824 24.384C290.44 25.2373 290.248 26.1973 290.248 27.264V47.36H282.379V27.456C282.379 25.024 281.846 23.168 280.779 21.888C279.756 20.608 278.284 19.968 276.365 19.968C275.256 19.968 274.232 20.16 273.294 20.544C272.398 20.8853 271.588 21.3973 270.863 22.08C270.18 22.72 269.647 23.4667 269.263 24.32C268.879 25.1733 268.688 26.112 268.688 27.136V47.36H260.818Z" fill="#4F4F4F"/>
</svg>
