<svg width="280" height="41" viewBox="0 0 280 41" fill="none" xmlns="http://www.w3.org/2000/svg">
<path d="M8.52 32.8768H16.1175C17.3475 32.8768 18.5414 32.6756 19.6991 32.2731C20.8568 31.8706 21.8879 31.212 22.7924 30.2972C23.6968 29.3458 24.4204 28.12 24.9631 26.6198C25.5057 25.1196 25.7771 23.29 25.7771 21.1312C25.7771 19.1553 25.5781 17.3806 25.1801 15.8072C24.8183 14.1972 24.2033 12.8251 23.335 11.6908C22.4667 10.5564 21.309 9.69656 19.8619 9.11111C18.451 8.48907 16.6963 8.17804 14.598 8.17804H8.52V32.8768ZM0 0.933063H16.7144C19.2107 0.933063 21.5261 1.33556 23.6606 2.14056C25.8313 2.94556 27.6945 4.15306 29.2502 5.76305C30.842 7.37305 32.0721 9.38554 32.9404 11.8005C33.8448 14.2155 34.2971 17.0513 34.2971 20.3079C34.2971 23.162 33.9353 25.7965 33.2117 28.2115C32.4882 30.6265 31.3847 32.7122 29.9014 34.4685C28.4543 36.2249 26.6273 37.6153 24.4204 38.6399C22.2497 39.6278 19.681 40.1218 16.7144 40.1218H0V0.933063Z" fill="#EB7500"/>
<path d="M47.0614 20.6921C47.0614 22.3387 47.2423 23.9487 47.6041 25.5221C48.002 27.0589 48.617 28.4494 49.4491 29.6934C50.2813 30.9375 51.3666 31.9438 52.7052 32.7122C54.0438 33.444 55.6718 33.8099 57.5893 33.8099C59.5067 33.8099 61.1348 33.444 62.4734 32.7122C63.812 31.9438 64.8973 30.9375 65.7294 29.6934C66.5615 28.4494 67.1584 27.0589 67.5202 25.5221C67.9182 23.9487 68.1172 22.3387 68.1172 20.6921C68.1172 18.9723 67.9182 17.3075 67.5202 15.6975C67.1584 14.0875 66.5615 12.6604 65.7294 11.4163C64.8973 10.1357 63.812 9.12941 62.4734 8.39759C61.1348 7.62918 59.5067 7.24498 57.5893 7.24498C55.6718 7.24498 54.0438 7.62918 52.7052 8.39759C51.3666 9.12941 50.2813 10.1357 49.4491 11.4163C48.617 12.6604 48.002 14.0875 47.6041 15.6975C47.2423 17.3075 47.0614 18.9723 47.0614 20.6921ZM38.5414 20.6921C38.5414 17.7648 38.9755 15.0571 39.8438 12.5689C40.7121 10.0442 41.9602 7.84873 43.5883 5.9826C45.2163 4.11646 47.2061 2.65283 49.5577 1.5917C51.9455 0.530566 54.6227 0 57.5893 0C60.5921 0 63.2693 0.530566 65.6209 1.5917C67.9725 2.65283 69.9623 4.11646 71.5903 5.9826C73.2183 7.84873 74.4665 10.0442 75.3348 12.5689C76.203 15.0571 76.6372 17.7648 76.6372 20.6921C76.6372 23.5462 76.203 26.2173 75.3348 28.7055C74.4665 31.1571 73.2183 33.2976 71.5903 35.1272C69.9623 36.9567 67.9725 38.4021 65.6209 39.4632C63.2693 40.4877 60.5921 41 57.5893 41C54.6227 41 51.9455 40.4877 49.5577 39.4632C47.2061 38.4021 45.2163 36.9567 43.5883 35.1272C41.9602 33.2976 40.7121 31.1571 39.8438 28.7055C38.9755 26.2173 38.5414 23.5462 38.5414 20.6921Z" fill="#EB7500"/>
<path d="M89.2989 20.6921C89.2989 22.3387 89.4798 23.9487 89.8416 25.5221C90.2395 27.0589 90.8545 28.4494 91.6867 29.6934C92.5188 30.9375 93.6041 31.9438 94.9427 32.7122C96.2813 33.444 97.9093 33.8099 99.8268 33.8099C101.744 33.8099 103.372 33.444 104.711 32.7122C106.049 31.9438 107.135 30.9375 107.967 29.6934C108.799 28.4494 109.396 27.0589 109.758 25.5221C110.156 23.9487 110.355 22.3387 110.355 20.6921C110.355 18.9723 110.156 17.3075 109.758 15.6975C109.396 14.0875 108.799 12.6604 107.967 11.4163C107.135 10.1357 106.049 9.12941 104.711 8.39759C103.372 7.62918 101.744 7.24498 99.8268 7.24498C97.9093 7.24498 96.2813 7.62918 94.9427 8.39759C93.6041 9.12941 92.5188 10.1357 91.6867 11.4163C90.8545 12.6604 90.2395 14.0875 89.8416 15.6975C89.4798 17.3075 89.2989 18.9723 89.2989 20.6921ZM80.7789 20.6921C80.7789 17.7648 81.213 15.0571 82.0813 12.5689C82.9496 10.0442 84.1977 7.84873 85.8258 5.9826C87.4538 4.11646 89.4436 2.65283 91.7952 1.5917C94.183 0.530566 96.8602 0 99.8268 0C102.83 0 105.507 0.530566 107.858 1.5917C110.21 2.65283 112.2 4.11646 113.828 5.9826C115.456 7.84873 116.704 10.0442 117.572 12.5689C118.441 15.0571 118.875 17.7648 118.875 20.6921C118.875 23.5462 118.441 26.2173 117.572 28.7055C116.704 31.1571 115.456 33.2976 113.828 35.1272C112.2 36.9567 110.21 38.4021 107.858 39.4632C105.507 40.4877 102.83 41 99.8268 41C96.8602 41 94.183 40.4877 91.7952 39.4632C89.4436 38.4021 87.4538 36.9567 85.8258 35.1272C84.1977 33.2976 82.9496 31.1571 82.0813 28.7055C81.213 26.2173 80.7789 23.5462 80.7789 20.6921Z" fill="#EB7500"/>
<path d="M124.699 0.933063H151.941V8.17804H133.219V17.2343H149.445V23.9304H133.219V40.1218H124.699V0.933063Z" fill="#EB7500"/>
<path d="M163.705 20.6921C163.705 22.3387 163.886 23.9487 164.247 25.5221C164.645 27.0589 165.26 28.4494 166.093 29.6934C166.925 30.9375 168.01 31.9438 169.349 32.7122C170.687 33.444 172.315 33.8099 174.233 33.8099C176.15 33.8099 177.778 33.444 179.117 32.7122C180.455 31.9438 181.541 30.9375 182.373 29.6934C183.205 28.4494 183.802 27.0589 184.164 25.5221C184.562 23.9487 184.761 22.3387 184.761 20.6921C184.761 18.9723 184.562 17.3075 184.164 15.6975C183.802 14.0875 183.205 12.6604 182.373 11.4163C181.541 10.1357 180.455 9.12941 179.117 8.39759C177.778 7.62918 176.15 7.24498 174.233 7.24498C172.315 7.24498 170.687 7.62918 169.349 8.39759C168.01 9.12941 166.925 10.1357 166.093 11.4163C165.26 12.6604 164.645 14.0875 164.247 15.6975C163.886 17.3075 163.705 18.9723 163.705 20.6921ZM155.185 20.6921C155.185 17.7648 155.619 15.0571 156.487 12.5689C157.355 10.0442 158.604 7.84873 160.232 5.9826C161.86 4.11646 163.849 2.65283 166.201 1.5917C168.589 0.530566 171.266 0 174.233 0C177.235 0 179.913 0.530566 182.264 1.5917C184.616 2.65283 186.606 4.11646 188.234 5.9826C189.862 7.84873 191.11 10.0442 191.978 12.5689C192.846 15.0571 193.281 17.7648 193.281 20.6921C193.281 23.5462 192.846 26.2173 191.978 28.7055C191.11 31.1571 189.862 33.2976 188.234 35.1272C186.606 36.9567 184.616 38.4021 182.264 39.4632C179.913 40.4877 177.235 41 174.233 41C171.266 41 168.589 40.4877 166.201 39.4632C163.849 38.4021 161.86 36.9567 160.232 35.1272C158.604 33.2976 157.355 31.1571 156.487 28.7055C155.619 26.2173 155.185 23.5462 155.185 20.6921Z" fill="#EB7500"/>
<path d="M207.625 18.6613H216.959C218.912 18.6613 220.377 18.2222 221.354 17.344C222.331 16.4659 222.819 15.0388 222.819 13.0629C222.819 11.1602 222.331 9.78804 221.354 8.94645C220.377 8.06827 218.912 7.62918 216.959 7.62918H207.625V18.6613ZM199.105 0.933063H219.998C221.734 0.933063 223.29 1.22579 224.665 1.81124C226.075 2.36011 227.269 3.12851 228.246 4.11647C229.259 5.10442 230.019 6.25703 230.525 7.57429C231.068 8.85497 231.339 10.2454 231.339 11.7456C231.339 14.0509 230.851 16.0451 229.874 17.7282C228.934 19.4114 227.378 20.6921 225.207 21.5703V21.6801C226.256 21.9728 227.125 22.4302 227.812 23.0522C228.499 23.6377 229.06 24.3512 229.494 25.1928C229.928 25.9978 230.236 26.8942 230.417 27.8822C230.634 28.8701 230.779 29.8581 230.851 30.846C230.887 31.4681 230.923 32.1999 230.96 33.0415C230.996 33.8831 231.05 34.743 231.122 35.6212C231.231 36.4993 231.376 37.3409 231.556 38.1459C231.774 38.9143 232.081 39.573 232.479 40.1218H223.959C223.489 38.8777 223.199 37.3958 223.091 35.676C222.982 33.9563 222.819 32.3097 222.602 30.7363C222.313 28.6872 221.698 27.187 220.757 26.2356C219.817 25.2842 218.279 24.8086 216.145 24.8086H207.625V40.1218H199.105V0.933063Z" fill="#EB7500"/>
<path d="M238.268 0.933063H250.261L259.324 27.8822H259.433L268.007 0.933063H280V40.1218H272.023V12.3494H271.914L262.417 40.1218H255.851L246.354 12.6238H246.246V40.1218H238.268V0.933063Z" fill="#EB7500"/>
</svg>
